# xmcd
#
# Track frame offsets:
# 150
# 23524
# 54442
# 77586
# 99246
# 112659
# 124790
#
# Disc length: 1933 seconds
#
#
# Revision: 2
# Processed by: cddbd v1.5.2PL0 Copyright (c) Steve Scherf et al.
# Submitted via: FreeRIP 2.945 
#
DISCID=40078b07
DTITLE=Chic - Tongue In 
DYEAR=1982
DGENRE=soul
TTITLE0=Hangin'
TTITLE1=I Feel Your Love Comin' On
TTITLE2=When You Love Someone
TTITLE3=Chic (everybody say)
TTITLE4=Hey Fool
TTITLE5=Sharing Love
TTITLE6=City Lights
EXTD=
EXTT0=
EXTT1=
EXTT2=
EXTT3=
EXTT4=
EXTT5=
EXTT6=
PLAYORDER=
